<svg width="36" height="36" viewBox="0 0 36 36" fill="none" xmlns="http://www.w3.org/2000/svg">
<path fill-rule="evenodd" clip-rule="evenodd" d="M4.5 10C4.5 9.44772 4.94772 9 5.5 9H30.5C31.0523 9 31.5 9.44772 31.5 10V12.5C31.5 13.0523 31.0523 13.5 30.5 13.5H5.5C4.94771 13.5 4.5 13.0523 4.5 12.5V10ZM6 17.5C6 16.9477 6.44772 16.5 7 16.5H15.5C16.0523 16.5 16.5 16.9477 16.5 17.5V29C16.5 29.5523 16.0523 30 15.5 30H7C6.44772 30 6 29.5523 6 29V17.5ZM20.5 16.5C19.9477 16.5 19.5 16.9477 19.5 17.5V29C19.5 29.5523 19.9477 30 20.5 30H29C29.5523 30 30 29.5523 30 29V17.5C30 16.9477 29.5523 16.5 29 16.5H20.5Z" fill="#3D2DE0"/>
<path opacity="0.54" d="M21.668 3.2519C22.3573 2.79237 23.2886 2.97863 23.7481 3.66793C24.2076 4.35722 24.0214 5.28852 23.3321 5.74805L18 9.30275L12.668 5.74805C11.9787 5.28852 11.7924 4.35722 12.252 3.66793C12.7115 2.97863 13.6428 2.79237 14.3321 3.2519L18 5.6972L21.668 3.2519Z" fill="#3D2DE0"/>
</svg>
