<svg xmlns="http://www.w3.org/2000/svg" width="619" height="395" fill="none"><g filter="url(#a)"><ellipse cx="407" cy="185.5" fill="#6151FD" fill-opacity=".53" rx="89" ry="62.5"/></g><g filter="url(#b)" style="mix-blend-mode:darken"><ellipse cx="232" cy="216.5" fill="#B770EB" fill-opacity=".65" rx="109" ry="55.5"/></g><path stroke="#0C2B3F" stroke-linecap="round" stroke-linejoin="round" stroke-width="3" d="M408.333 183.333h-16.666a8.333 8.333 0 0 0-8.334 8.333v16.667a8.333 8.333 0 0 0 8.334 8.333h16.666a8.333 8.333 0 0 0 8.334-8.333v-16.667a8.333 8.333 0 0 0-8.334-8.333Z"/><path stroke="#0C2B3F" stroke-linecap="round" stroke-linejoin="round" stroke-width="3" d="M406.667 198.95a6.67 6.67 0 0 1-11.309 5.692 6.667 6.667 0 1 1 11.309-5.692ZM409.167 190.833h.016"/><defs><filter id="a" width="424" height="371" x="195" y="0" color-interpolation-filters="sRGB" filterUnits="userSpaceOnUse"><feFlood flood-opacity="0" result="BackgroundImageFix"/><feBlend in="SourceGraphic" in2="BackgroundImageFix" result="shape"/><feGaussianBlur result="effect1_foregroundBlur_234_1015" stdDeviation="61.5"/></filter><filter id="b" width="464" height="357" x="0" y="38" color-interpolation-filters="sRGB" filterUnits="userSpaceOnUse"><feFlood flood-opacity="0" result="BackgroundImageFix"/><feBlend in="SourceGraphic" in2="BackgroundImageFix" result="shape"/><feGaussianBlur result="effect1_foregroundBlur_234_1015" stdDeviation="61.5"/></filter></defs></svg>