<svg width="164" height="164" viewBox="0 0 164 164" fill="none" xmlns="http://www.w3.org/2000/svg">
<path d="M153.782 96.2924L150.061 96.0227L150.114 95.5806C150.776 95.5735 151.255 95.513 151.552 95.3991C152.031 95.2127 152.399 94.9304 152.657 94.5521C152.922 94.1826 153.093 93.6721 153.172 93.0205L153.438 90.7982L141.384 89.3511C140.415 89.2347 139.797 89.2668 139.532 89.4474C139.17 89.703 138.953 90.1373 138.879 90.75L138.814 91.2969L138.383 91.2452L139.186 84.555L139.617 84.6067L139.55 85.1651C139.47 85.8322 139.615 86.3296 139.985 86.6573C140.212 86.8577 140.768 87.011 141.653 87.1172L153.707 88.5642L153.934 86.6677C154.023 85.9308 154.031 85.4007 153.96 85.0774C153.861 84.6563 153.619 84.2771 153.235 83.9399C152.85 83.6026 152.305 83.364 151.598 83.224L151.651 82.7819L155.328 83.4122L153.782 96.2924Z" fill="black"/>
<path d="M152.394 104.04L145.012 101.364C145.613 102.505 145.952 103.359 146.028 103.926C146.112 104.497 146.068 105.021 145.895 105.498C145.687 106.071 145.351 106.506 144.886 106.803C144.421 107.1 143.815 107.225 143.067 107.179C142.547 107.148 141.662 106.906 140.413 106.453L136.844 105.16C136.205 104.928 135.749 104.821 135.477 104.839C135.274 104.848 135.089 104.923 134.922 105.062C134.756 105.201 134.587 105.505 134.417 105.975L134.02 105.832L135.817 100.874L136.214 101.017L136.13 101.249C135.959 101.719 135.911 102.071 135.984 102.305C136.064 102.542 136.23 102.748 136.483 102.922C136.592 102.987 136.934 103.123 137.507 103.331L141.076 104.625C142.178 105.024 142.923 105.227 143.311 105.235C143.696 105.25 144.018 105.163 144.277 104.975C144.544 104.789 144.742 104.52 144.869 104.167C145 103.807 145.04 103.398 144.99 102.939C144.94 102.481 144.724 101.875 144.34 101.121L139.008 99.1883C138.318 98.9381 137.875 98.819 137.679 98.8313C137.481 98.8508 137.286 98.9422 137.094 99.1052C136.906 99.2783 136.719 99.6219 136.533 100.136L136.136 99.9923L137.949 94.9904L138.346 95.1341C138.183 95.5822 138.125 95.96 138.172 96.2677C138.192 96.4412 138.289 96.6093 138.463 96.772C138.636 96.9346 139.039 97.1304 139.671 97.3594L148.804 100.67C149.957 101.088 150.677 101.315 150.963 101.352C151.246 101.397 151.456 101.377 151.594 101.294C151.73 101.219 151.832 101.086 151.901 100.895C151.957 100.74 151.989 100.469 151.996 100.081L152.438 100.067L152.578 103.533L152.394 104.04Z" fill="black"/>
<path d="M138.232 112.139C136.882 111.292 135.616 110.961 134.434 111.147C133.252 111.333 132.383 111.873 131.827 112.769C131.456 113.367 131.297 113.985 131.35 114.625C131.406 115.276 131.739 115.998 132.35 116.791L131.96 116.976C131.137 116.272 130.559 115.352 130.225 114.216C129.898 113.084 130.047 112.014 130.674 111.005C131.354 109.91 132.362 109.235 133.697 108.979C135.036 108.734 136.425 109.059 137.865 109.953C139.425 110.921 140.392 112.074 140.767 113.41C141.145 114.757 140.958 116.035 140.208 117.243C139.574 118.265 138.714 118.894 137.629 119.131C136.551 119.372 135.447 119.142 134.319 118.441L138.232 112.139ZM138.809 112.498L136.188 116.719C136.793 117.049 137.248 117.234 137.553 117.277C138.027 117.341 138.474 117.274 138.892 117.074C139.307 116.88 139.625 116.605 139.848 116.246C140.19 115.695 140.281 115.067 140.122 114.361C139.965 113.666 139.527 113.045 138.809 112.498Z" fill="black"/>
<path d="M119.886 135.95C119.786 137.727 119.228 138.939 118.213 139.585C117.283 140.176 116.219 140.293 115.019 139.936C113.824 139.585 112.788 138.721 111.911 137.343C110.888 135.735 110.598 134.1 111.041 132.439C111.42 131.012 112.173 129.94 113.301 129.223C113.828 128.887 114.426 128.641 115.095 128.484C115.757 128.332 116.493 128.266 117.303 128.288L123.273 137.67C123.927 138.699 124.356 139.315 124.56 139.518C124.757 139.726 124.936 139.84 125.096 139.858C125.256 139.877 125.415 139.836 125.573 139.735C125.757 139.618 125.955 139.418 126.164 139.137L126.523 139.395L124.509 142.232L124.064 142.515L119.886 135.95ZM119.484 135.317L116.036 129.899C115.491 129.783 114.985 129.753 114.52 129.808C114.053 129.874 113.631 130.026 113.256 130.266C112.656 130.647 112.309 131.331 112.214 132.317C112.112 133.308 112.462 134.433 113.263 135.692C114.001 136.852 114.828 137.576 115.743 137.864C116.655 138.163 117.441 138.103 118.1 137.684C118.45 137.461 118.743 137.15 118.979 136.75C119.158 136.45 119.327 135.973 119.484 135.317Z" fill="black"/>
<path d="M107.771 140.375C107.218 138.88 106.417 137.846 105.367 137.272C104.317 136.698 103.299 136.596 102.311 136.967C101.653 137.214 101.15 137.607 100.802 138.146C100.449 138.696 100.272 139.471 100.273 140.473L99.8501 140.381C99.6277 139.321 99.7308 138.239 100.159 137.136C100.591 136.039 101.362 135.282 102.474 134.865C103.681 134.412 104.892 134.492 106.106 135.105C107.316 135.727 108.219 136.832 108.814 138.419C109.459 140.138 109.523 141.641 109.004 142.929C108.482 144.226 107.555 145.125 106.223 145.625C105.097 146.047 104.032 146.021 103.028 145.547C102.026 145.08 101.292 144.225 100.826 142.981L107.771 140.375ZM108.01 141.012L103.358 142.757C103.636 143.387 103.883 143.812 104.099 144.031C104.435 144.372 104.83 144.591 105.284 144.688C105.73 144.788 106.151 144.763 106.546 144.615C107.153 144.387 107.608 143.945 107.913 143.288C108.213 142.642 108.245 141.883 108.01 141.012Z" fill="black"/>
<path d="M91.3373 149.51L90.7073 145.908L91.0882 145.842C91.5785 146.922 92.0902 147.626 92.6233 147.953C93.1487 148.281 93.7654 148.383 94.4734 148.26C95.0121 148.165 95.422 147.947 95.7031 147.604C95.9842 147.262 96.0945 146.917 96.0339 146.571C95.9585 146.14 95.7708 145.792 95.4706 145.527C95.1769 145.253 94.6335 145.004 93.8405 144.777L92.0118 144.253C90.3163 143.764 89.3595 142.896 89.1414 141.65C88.9732 140.688 89.2027 139.847 89.8302 139.126C90.4513 138.415 91.212 137.98 92.1124 137.823C92.7588 137.71 93.5178 137.696 94.3893 137.781C94.6567 137.814 94.8712 137.816 95.0328 137.788C95.2098 137.757 95.3309 137.633 95.3959 137.415L95.7768 137.348L96.4371 141.123L96.0562 141.19C95.6523 140.15 95.0985 139.41 94.395 138.97C93.6915 138.53 92.9626 138.376 92.2084 138.508C91.6774 138.601 91.2734 138.83 90.9963 139.196C90.7129 139.57 90.6096 139.977 90.6863 140.416C90.7792 140.947 91.0458 141.36 91.4862 141.656C91.9188 141.953 92.7416 142.281 93.9544 142.64C95.1671 142.999 95.9857 143.371 96.4101 143.757C96.8331 144.135 97.1032 144.659 97.2203 145.328C97.3725 146.198 97.2034 146.977 96.7131 147.665C96.2152 148.355 95.4929 148.783 94.5464 148.949C94.1308 149.021 93.6112 149.021 92.9877 148.948C92.575 148.901 92.3033 148.889 92.1725 148.912C92.0493 148.933 91.9579 148.977 91.898 149.043C91.8382 149.109 91.7782 149.243 91.7182 149.443L91.3373 149.51Z" fill="black"/>
<path d="M83.8001 153.337L83.7184 149.811L81.2112 149.869L81.1922 149.049L83.6994 148.991L83.5382 142.032C83.5221 141.337 83.4136 140.87 83.2127 140.633C83.0041 140.395 82.7435 140.28 82.4311 140.287C82.1734 140.293 81.9252 140.377 81.6867 140.539C81.4484 140.709 81.2665 140.951 81.1409 141.267L80.684 141.277C80.9397 140.506 81.3129 139.919 81.8037 139.517C82.2947 139.122 82.8058 138.919 83.3369 138.907C83.6961 138.898 84.0499 138.988 84.3981 139.175C84.7464 139.37 85.0069 139.649 85.1794 140.013C85.3521 140.384 85.4474 140.956 85.4653 141.729L85.6325 148.946L87.3312 148.907L87.3402 149.293C86.9146 149.475 86.4839 149.774 86.0481 150.191C85.6047 150.615 85.2138 151.113 84.8753 151.683C84.7026 151.984 84.4652 152.533 84.1632 153.329L83.8001 153.337Z" fill="black"/>
<path d="M52.004 143.185L54.5376 137.195C55.0215 136.051 55.2931 135.339 55.3523 135.059C55.4012 134.782 55.3894 134.57 55.3169 134.42C55.2372 134.268 55.1182 134.158 54.9599 134.091C54.7368 133.997 54.4591 133.951 54.1268 133.955L54.1355 133.513L57.6086 133.544L58.0943 133.75L57.2087 135.844C58.4473 135.282 59.3398 134.976 59.8864 134.928C60.4329 134.879 60.9544 134.96 61.4509 135.17C62.0049 135.404 62.4201 135.766 62.6963 136.256C62.9623 136.75 63.0679 137.283 63.0132 137.853C62.9584 138.424 62.7363 139.17 62.3467 140.091L60.4796 144.505C60.2818 144.973 60.1952 145.318 60.2199 145.541C60.2445 145.763 60.3378 145.964 60.4997 146.142C60.6514 146.325 60.9878 146.523 61.5089 146.735L61.34 147.134L57.8754 145.669L60.6738 139.053C61.0633 138.131 61.1607 137.46 60.9658 137.038C60.7638 136.614 60.4361 136.305 59.9828 136.114C59.6734 135.983 59.2833 135.932 58.8126 135.962C58.3347 135.989 57.7103 136.162 56.9393 136.48L54.57 142.082C54.3327 142.643 54.2772 143.065 54.4037 143.348C54.52 143.634 54.8988 143.922 55.5403 144.21L55.3714 144.61L52.004 143.185Z" fill="black"/>
<path d="M45.9002 137.523C43.9988 138.037 42.582 137.965 41.6499 137.308C41.1711 136.97 40.8449 136.558 40.6712 136.072C40.4931 135.593 40.4955 135.007 40.6784 134.314C40.8081 133.831 41.1522 133.195 41.7105 132.403L44.3515 128.658C44.7432 128.103 44.9642 127.695 45.0144 127.434C45.0567 127.225 45.0328 127.021 44.9426 126.824C44.8461 126.622 44.5871 126.372 44.1657 126.075L44.4089 125.731L48.747 128.79L48.5039 129.135L48.3219 129.007C47.9133 128.718 47.5865 128.579 47.3413 128.587C47.0852 128.598 46.8397 128.702 46.6048 128.9C46.5117 128.978 46.2873 129.269 45.9316 129.773L43.3987 133.364C42.8359 134.162 42.5337 134.814 42.4922 135.32C42.4398 135.828 42.6595 136.256 43.1511 136.602C43.9108 137.138 44.96 137.257 46.2987 136.958L49.5611 132.333C49.9798 131.739 50.2036 131.347 50.2325 131.157C50.2737 130.909 50.2492 130.686 50.159 130.489C50.0579 130.293 49.768 130.027 49.2891 129.689L49.5323 129.344L53.8704 132.404L53.6273 132.749L53.4358 132.613C52.9889 132.298 52.61 132.198 52.2992 132.314C51.9775 132.431 51.5915 132.809 51.1412 133.447L48.8447 136.703C48.1017 137.757 47.6747 138.416 47.5637 138.682C47.4463 138.944 47.4094 139.152 47.453 139.307C47.4902 139.457 47.5918 139.591 47.7578 139.708C47.9366 139.834 48.1842 139.937 48.5008 140.017L48.4013 140.463L45.0017 139.672L44.5899 139.381L45.9002 137.523Z" fill="black"/>
<path d="M29.6236 134.497C29.3924 134.264 29.2802 133.985 29.2869 133.659C29.2825 133.333 29.3968 133.054 29.6296 132.823C29.8625 132.592 30.1447 132.477 30.4761 132.478C30.8021 132.474 31.0806 132.588 31.3118 132.821C31.543 133.054 31.658 133.336 31.6568 133.667C31.6556 133.999 31.5385 134.28 31.3057 134.511C31.0728 134.742 30.7962 134.857 30.4758 134.856C30.1443 134.855 29.8602 134.735 29.6236 134.497ZM32.9219 129.852L39.0428 123.775C39.5196 123.302 39.8054 122.952 39.9001 122.726C39.9838 122.5 39.9984 122.282 39.9439 122.072C39.8839 121.856 39.6751 121.568 39.3173 121.207L39.6167 120.91L43.2907 124.611L42.9913 124.908C42.6225 124.537 42.3388 124.323 42.1401 124.267C41.9415 124.211 41.7232 124.23 41.4853 124.323C41.2419 124.41 40.8846 124.688 40.4133 125.156L37.4776 128.07C36.6515 128.89 36.1413 129.446 35.9469 129.739C35.808 129.953 35.7465 130.136 35.7626 130.285C35.7731 130.439 35.8498 130.589 35.993 130.733C36.1471 130.888 36.3758 131.036 36.6791 131.175L36.4953 131.588L33.2852 130.218L32.9219 129.852Z" fill="black"/>
<path d="M29.3635 125.993L26.4827 121.844L26.8388 121.597L27.026 121.866C27.1997 122.116 27.3944 122.267 27.6099 122.317C27.8209 122.36 28.0291 122.311 28.2345 122.168C28.4591 122.012 28.6786 121.76 28.893 121.411L32.3399 115.979L25.856 117.428C25.3942 117.53 25.0702 117.646 24.8841 117.775C24.7943 117.837 24.7383 117.914 24.7162 118.006C24.669 118.143 24.6672 118.278 24.7109 118.409C24.7481 118.545 24.8826 118.78 25.1143 119.113L24.7582 119.361L22.7596 116.483L23.1158 116.235C23.3732 116.551 23.6009 116.735 23.7992 116.788C24.1476 116.879 24.6089 116.858 25.1828 116.726L34.9209 114.601L35.1949 114.995L29.94 123.31C29.6915 123.691 29.538 123.998 29.4796 124.229C29.4147 124.464 29.4 124.717 29.4354 124.987C29.4534 125.136 29.5482 125.389 29.7196 125.745L29.3635 125.993Z" fill="black"/>
<path d="M23.9892 110.176C25.4601 109.562 26.4607 108.719 26.991 107.647C27.5213 106.574 27.5811 105.552 27.1702 104.581C26.8963 103.933 26.4827 103.447 25.9292 103.121C25.3655 102.791 24.5835 102.647 23.5831 102.688L23.6575 102.262C24.7071 101.996 25.7922 102.055 26.9127 102.438C28.0259 102.823 28.8138 103.563 29.2764 104.657C29.7786 105.844 29.7487 107.057 29.1868 108.296C28.6147 109.53 27.548 110.478 25.9866 111.138C24.2957 111.853 22.7963 111.978 21.4885 111.514C20.1705 111.045 19.2345 110.155 18.6806 108.846C18.2119 107.738 18.1939 106.672 18.6265 105.65C19.052 104.63 19.8763 103.861 21.0995 103.344L23.9892 110.176ZM23.3632 110.441L21.4276 105.865C20.8096 106.168 20.3955 106.433 20.1851 106.657C19.8583 107.008 19.6558 107.411 19.5777 107.868C19.4966 108.318 19.5382 108.738 19.7026 109.126C19.9552 109.723 20.4157 110.161 21.0843 110.438C21.7426 110.711 22.5023 110.712 23.3632 110.441Z" fill="black"/>
<path d="M15.0039 97.8748L17.3583 97.3413C15.5902 96.8208 14.6016 96.0995 14.3928 95.1775C14.2978 94.7585 14.3488 94.3825 14.5457 94.0495C14.735 93.7182 14.9972 93.5146 15.3325 93.4386C15.6297 93.3713 15.9035 93.4134 16.1541 93.5649C16.4048 93.7163 16.5611 93.9292 16.6233 94.2035C16.6837 94.4702 16.6224 94.8005 16.4393 95.1945C16.2468 95.5825 16.1687 95.8566 16.205 96.0166C16.2361 96.1537 16.3459 96.285 16.5346 96.4105C16.9247 96.6826 17.5192 96.9204 18.3183 97.1238L23.3357 95.987C23.9147 95.8558 24.3365 95.6841 24.6008 95.472C24.7841 95.3264 24.9158 95.1123 24.996 94.8298C25.0762 94.5472 25.0627 94.1698 24.9557 93.6974L25.3672 93.6042L26.5817 98.9644L26.1702 99.0576C26.0494 98.5242 25.8758 98.147 25.6495 97.926C25.4844 97.7631 25.2599 97.6738 24.976 97.658C24.8378 97.6493 24.4639 97.7139 23.8544 97.8521L19.7971 98.7714C18.578 99.0476 17.8602 99.2383 17.6437 99.3434C17.4178 99.4426 17.2671 99.5729 17.1915 99.7342C17.1142 99.8879 17.098 100.064 17.1429 100.262C17.1964 100.498 17.314 100.752 17.4956 101.023L17.11 101.231L15.1127 98.3548L15.0039 97.8748Z" fill="black"/>
<path d="M13.0672 83.7114L16.7165 83.4858L16.7404 83.8718C15.6124 84.239 14.8563 84.6692 14.4719 85.1626C14.0871 85.6482 13.9169 86.2497 13.9612 86.9671C13.9949 87.5129 14.1664 87.9446 14.4757 88.2621C14.7849 88.5795 15.115 88.7274 15.4659 88.7057C15.9025 88.6787 16.2691 88.5308 16.5656 88.262C16.8703 88.0005 17.1792 87.4883 17.4921 86.7254L18.217 84.9664C18.8911 83.3357 19.8598 82.4814 21.123 82.4033C22.0977 82.3431 22.9081 82.6648 23.5543 83.3684C24.1923 84.0648 24.5394 84.8691 24.5958 85.7814C24.6363 86.4364 24.5656 87.1922 24.3837 88.0488C24.3217 88.311 24.2957 88.5239 24.3058 88.6877C24.3169 88.867 24.4269 89.0011 24.6359 89.09L24.6598 89.4759L20.8351 89.7123L20.8112 89.3264C21.8894 89.0406 22.6862 88.5725 23.2018 87.9223C23.7173 87.2721 23.9515 86.5649 23.9043 85.8007C23.871 85.2627 23.6881 84.8356 23.3554 84.5196C23.0145 84.1963 22.6218 84.0484 22.1774 84.0758C21.6393 84.1091 21.1989 84.3281 20.856 84.7328C20.5127 85.1298 20.0952 85.9109 19.6037 87.0763C19.1121 88.2416 18.6511 89.0137 18.2205 89.3926C17.7977 89.7709 17.2471 89.9811 16.5688 90.023C15.6876 90.0775 14.9322 89.8228 14.3025 89.259C13.6722 88.6874 13.3275 87.9221 13.2682 86.963C13.2422 86.5419 13.3003 86.0256 13.4425 85.4141C13.5349 85.0092 13.577 84.7405 13.5688 84.6079C13.5611 84.4832 13.5278 84.3874 13.4689 84.3206C13.4099 84.2538 13.284 84.1794 13.0911 84.0974L13.0672 83.7114Z" fill="black"/>
<path d="M7.68217 75.6982C7.71249 75.3715 7.85481 75.1062 8.10912 74.9023C8.35637 74.6898 8.64336 74.5988 8.97008 74.6291C9.2968 74.6594 9.56602 74.8021 9.77773 75.0571C9.99016 75.3044 10.0812 75.5914 10.0509 75.9181C10.0206 76.2448 9.87789 76.514 9.62286 76.7257C9.36783 76.9374 9.07695 77.0281 8.75023 76.9978C8.42351 76.9675 8.15782 76.8291 7.95317 76.5825C7.74145 76.3275 7.65112 76.0327 7.68217 75.6982ZM13.3613 75.2485L21.9494 76.0456C22.6184 76.1077 23.07 76.1025 23.3043 76.0301C23.5315 75.9492 23.7082 75.8205 23.8344 75.6439C23.9614 75.4595 24.0483 75.1145 24.0953 74.6089L24.5153 74.6479L24.0334 79.8404L23.6133 79.8014C23.6617 79.2802 23.6436 78.9254 23.5591 78.7371C23.4746 78.5488 23.3203 78.3933 23.0964 78.2705C22.8731 78.1399 22.4308 78.044 21.7696 77.9826L17.6506 77.6003C16.4915 77.4927 15.7376 77.458 15.3888 77.4963C15.1348 77.5276 14.9558 77.5973 14.8516 77.7053C14.7396 77.8126 14.6743 77.9674 14.6555 78.1697C14.6353 78.3875 14.6691 78.6574 14.7569 78.9794L14.3216 79.1038L13.3137 75.7619L13.3613 75.2485Z" fill="black"/>
<path d="M11.6068 65.7879L15.0409 66.5935L15.6137 64.152L16.4123 64.3394L15.8396 66.7809L22.6165 68.3708C23.2934 68.5296 23.7721 68.5416 24.0525 68.4068C24.3347 68.2643 24.5114 68.041 24.5828 67.7367C24.6417 67.4857 24.6227 67.2245 24.5259 66.953C24.4215 66.6798 24.2324 66.4428 23.9585 66.2421L24.0629 65.7972C24.7458 66.2383 25.2203 66.7468 25.4864 67.3228C25.7449 67.897 25.8135 68.4427 25.6921 68.9599C25.6101 69.3098 25.4347 69.6298 25.166 69.9198C24.8897 70.2081 24.5541 70.3902 24.1592 70.466C23.7566 70.5401 23.1788 70.4888 22.4259 70.3122L15.3979 68.6634L15.0098 70.3177L14.6333 70.2294C14.5641 69.7718 14.3826 69.2798 14.0888 68.7535C13.7892 68.2178 13.4057 67.7145 12.9384 67.2438C12.6904 67.001 12.2189 66.6336 11.5238 66.1416L11.6068 65.7879Z" fill="black"/>
<path d="M11.9664 56.0643C12.084 55.758 12.2928 55.541 12.5928 55.4135C12.8883 55.2759 13.1892 55.2658 13.4955 55.3834C13.8019 55.501 14.0225 55.7112 14.1573 56.014C14.2949 56.3095 14.3049 56.6104 14.1874 56.9167C14.0698 57.2231 13.8596 57.4436 13.5568 57.5785C13.254 57.7133 12.9495 57.7219 12.6431 57.6044C12.3368 57.4868 12.1185 57.2817 11.9881 56.989C11.8533 56.6862 11.8461 56.3779 11.9664 56.0643ZM17.5555 57.1676L25.6078 60.2581C26.2351 60.4989 26.6712 60.6161 26.9163 60.6097C27.157 60.5933 27.3619 60.5171 27.5312 60.3813C27.7033 60.2381 27.8803 59.9295 28.0623 59.4554L28.4562 59.6066L26.5876 64.4751L26.1937 64.324C26.3813 63.8353 26.4598 63.4889 26.4294 63.2847C26.399 63.0806 26.2925 62.8891 26.1101 62.7103C25.9305 62.5242 25.5307 62.3122 24.9107 62.0743L21.0487 60.592C19.9619 60.1749 19.2455 59.9376 18.8994 59.88C18.6464 59.8415 18.4551 59.8601 18.3256 59.936C18.1888 60.009 18.084 60.1403 18.0112 60.3299C17.9328 60.5342 17.8924 60.8031 17.8898 61.1369L17.4371 61.1389L17.3707 57.649L17.5555 57.1676Z" fill="black"/>
<path d="M24.3932 52.2266C25.7584 53.0489 27.0302 53.3564 28.2086 53.1491C29.387 52.9417 30.2461 52.3849 30.7859 51.4789C31.1457 50.8748 31.2932 50.2533 31.2282 49.6144C31.1605 48.9648 30.8139 48.2491 30.1884 47.4672L30.5756 47.2751C31.4112 47.9638 32.0063 48.873 32.3609 50.0027C32.7088 51.1284 32.5788 52.2014 31.9711 53.2216C31.3114 54.329 30.316 55.0229 28.9851 55.3031C27.6515 55.5726 26.2565 55.2735 24.8 54.4059C23.2227 53.4662 22.2344 52.3318 21.8349 51.0026C21.4328 49.6627 21.5955 48.382 22.3232 47.1605C22.939 46.1268 23.7871 45.4817 24.8675 45.2251C25.9412 44.9644 27.0486 45.174 28.1896 45.8537L24.3932 52.2266ZM23.8092 51.8787L26.3522 47.61C25.7416 47.2917 25.2834 47.1143 24.9778 47.0777C24.502 47.0216 24.0568 47.0974 23.6421 47.305C23.2314 47.5059 22.9181 47.7876 22.7022 48.1501C22.3703 48.7071 22.2906 49.3371 22.4629 50.04C22.6326 50.7322 23.0814 51.3451 23.8092 51.8787Z" fill="black"/>
<path d="M31.4755 34.8178L34.2244 37.2286L33.9694 37.5194C32.9102 36.9853 32.0704 36.758 31.45 36.8374C30.8348 36.9109 30.2902 37.2178 29.8163 37.7582C29.4557 38.1694 29.2733 38.5965 29.2692 39.0397C29.265 39.4828 29.395 39.8203 29.6593 40.0521C29.9883 40.3406 30.3526 40.4939 30.7524 40.512C31.1529 40.5411 31.7329 40.3952 32.4925 40.0741L34.2462 39.3364C35.8734 38.6541 37.1627 38.7302 38.1143 39.5647C38.8485 40.2086 39.197 41.0079 39.1599 41.9625C39.1221 42.9061 38.8018 43.7215 38.1991 44.4088C37.7664 44.9021 37.1838 45.3887 36.4512 45.8685C36.2225 46.0109 36.054 46.1437 35.9458 46.267C35.8274 46.4021 35.811 46.5748 35.8967 46.7851L35.6418 47.0758L32.7608 44.5491L33.0157 44.2584C33.9823 44.8151 34.8775 45.0443 35.7015 44.9461C36.5255 44.8478 37.1899 44.5109 37.6947 43.9352C38.0502 43.53 38.2212 43.098 38.2077 42.6394C38.1936 42.1698 38.0191 41.7881 37.6843 41.4945C37.279 41.1391 36.8122 40.9842 36.2837 41.0299C35.7604 41.0697 34.9138 41.33 33.7439 41.8108C32.5741 42.2915 31.7029 42.5147 31.1305 42.4802C30.5639 42.4509 30.0251 42.2122 29.5141 41.764C28.8503 41.1819 28.4936 40.469 28.4439 39.6252C28.3993 38.7756 28.6938 37.9895 29.3274 37.2671C29.6056 36.9499 30.0105 36.6244 30.5423 36.2906C30.8931 36.0684 31.1123 35.9073 31.1999 35.8074C31.2823 35.7135 31.3261 35.622 31.3314 35.5331C31.3366 35.4442 31.2997 35.3026 31.2205 35.1085L31.4755 34.8178Z" fill="black"/>
<path d="M47.9761 15.4874C48.2707 15.3429 48.5713 15.326 48.8779 15.4367C49.1881 15.5369 49.4154 15.7343 49.5599 16.0289C49.7044 16.3235 49.723 16.6276 49.6158 16.9412C49.5156 17.2514 49.3182 17.4788 49.0236 17.6233C48.729 17.7677 48.4249 17.7864 48.1112 17.6792C47.7976 17.5719 47.5685 17.371 47.4241 17.0764C47.2796 16.7818 47.2591 16.4829 47.3628 16.1798C47.47 15.8661 47.6744 15.6353 47.9761 15.4874ZM51.3211 20.0989L55.1191 27.8426C55.4149 28.4459 55.6548 28.8286 55.8388 28.9907C56.0263 29.1424 56.2283 29.226 56.4448 29.2417C56.6683 29.2539 57.008 29.1481 57.464 28.9245L57.6497 29.3033L52.9677 31.5996L52.7819 31.2209C53.2519 30.9904 53.5452 30.79 53.6618 30.6197C53.7784 30.4493 53.8307 30.2366 53.8187 29.9815C53.8136 29.7229 53.6649 29.2955 53.3725 28.6993L51.5509 24.9852C51.0384 23.9401 50.6748 23.2787 50.4603 23.001C50.3011 22.8006 50.1483 22.6841 50.0018 22.6516C49.8519 22.612 49.6857 22.6369 49.5033 22.7264C49.3069 22.8227 49.0942 22.9923 48.8653 23.2351L48.5322 22.9286L50.8582 20.3259L51.3211 20.0989Z" fill="black"/>
<path d="M60.1232 18.807C60.9135 17.003 61.8568 15.9435 62.9531 15.6285C63.5163 15.4666 64.0416 15.4701 64.529 15.639C65.0143 15.8003 65.4699 16.1693 65.8957 16.746C66.1903 17.1491 66.4714 17.8161 66.739 18.7472L68.0043 23.151C68.192 23.8043 68.3719 24.2322 68.5439 24.4348C68.6804 24.5988 68.8539 24.7074 69.0643 24.7608C69.2823 24.8119 69.639 24.7663 70.1346 24.6239L70.2511 25.0294L65.1489 26.4954L65.0324 26.09L65.2464 26.0285C65.727 25.8904 66.0406 25.7231 66.1873 25.5265C66.3394 25.3202 66.412 25.0636 66.4051 24.7567C66.4028 24.6354 66.3164 24.2782 66.1459 23.685L64.9323 19.4614C64.6627 18.5228 64.3435 17.8789 63.9749 17.5296C63.6116 17.1706 63.1409 17.0742 62.5628 17.2403C61.6692 17.4971 60.9197 18.2408 60.3141 19.4715L61.8773 24.9116C62.0779 25.6099 62.2433 26.0298 62.3733 26.1712C62.541 26.3588 62.7301 26.4792 62.9405 26.5326C63.1562 26.5762 63.5457 26.5172 64.1089 26.3553L64.2254 26.7608L59.1232 28.2268L59.0067 27.8214L59.232 27.7567C59.7576 27.6056 60.0727 27.3728 60.1774 27.0582C60.2875 26.734 60.2346 26.1964 60.0189 25.4456L58.9185 21.6161C58.5625 20.3772 58.3157 19.6312 58.1779 19.3782C58.0477 19.1229 57.9085 18.9638 57.7603 18.9007C57.6196 18.8355 57.4517 18.8309 57.2565 18.887C57.0462 18.9474 56.8109 19.076 56.5504 19.2727L56.2649 18.9158L59.0111 16.7612L59.4954 16.622L60.1232 18.807Z" fill="black"/>
<path d="M96.6519 20.5677L90.6365 19.2769L89.0562 21.5027C88.667 22.0504 88.4404 22.4732 88.3765 22.7711C88.3257 23.0079 88.3914 23.2418 88.5736 23.4726C88.765 23.6975 89.2293 23.917 89.9664 24.1311L89.8754 24.555L84.9829 23.5051L85.0739 23.0812C85.7478 23.1059 86.1998 23.0471 86.4301 22.9048C86.8984 22.6217 87.4898 21.9696 88.2043 20.9483L96.4137 9.33414L96.8147 9.42019L99.4494 23.5052C99.6619 24.6375 99.9102 25.398 100.194 25.7865C100.488 26.1691 100.947 26.4475 101.573 26.6218L101.482 27.0457L95.3523 25.7303L95.4433 25.3064C96.0686 25.4086 96.507 25.3948 96.7586 25.265C97.0178 25.1368 97.1745 24.9467 97.2286 24.6947C97.3007 24.3586 97.2618 23.7949 97.112 23.0037L96.6519 20.5677ZM96.513 19.651L95.2251 12.8066L91.1737 18.5052L96.513 19.651Z" fill="black"/>
<path d="M114.685 21.8211L111.799 27.6498C111.248 28.7631 110.935 29.4578 110.859 29.7341C110.793 30.0069 110.793 30.2201 110.856 30.3735C110.927 30.5305 111.039 30.6471 111.193 30.7233C111.41 30.8308 111.684 30.8926 112.016 30.9088L111.981 31.3491L108.516 31.1113L108.044 30.8773L109.052 28.8399C107.783 29.3271 106.873 29.5787 106.325 29.5949C105.776 29.611 105.261 29.4995 104.777 29.2603C104.238 28.9934 103.846 28.6072 103.599 28.1015C103.363 27.5924 103.289 27.0546 103.378 26.4882C103.466 25.9219 103.732 25.1906 104.176 24.2944L106.303 19.999C106.528 19.5439 106.635 19.2046 106.624 18.981C106.612 18.7574 106.531 18.5516 106.38 18.3636C106.24 18.1719 105.915 17.9549 105.408 17.7123L105.6 17.3237L108.971 18.9927L105.784 25.4305C105.341 26.3267 105.204 26.9911 105.373 27.4237C105.549 27.8597 105.858 28.1869 106.299 28.4053C106.6 28.5543 106.987 28.6279 107.458 28.6261C107.937 28.6277 108.571 28.4924 109.359 28.2202L112.058 22.7696C112.328 22.2235 112.408 21.8056 112.299 21.5161C112.2 21.223 111.839 20.9135 111.216 20.5875L111.408 20.1989L114.685 21.8211Z" fill="black"/>
<path d="M124.516 28.0943L122.312 31.0113L122.003 30.7781C122.459 29.6829 122.624 28.8288 122.5 28.2159C122.382 27.6076 122.036 27.0868 121.463 26.6535C121.026 26.3238 120.587 26.1729 120.145 26.201C119.702 26.2291 119.375 26.3834 119.163 26.6638C118.9 27.0129 118.773 27.3874 118.784 27.7875C118.784 28.189 118.972 28.7569 119.348 29.4911L120.211 31.1864C121.01 32.7597 121.028 34.0512 120.265 35.0609C119.676 35.84 118.904 36.2458 117.949 36.2782C117.006 36.3092 116.169 36.0491 115.44 35.498C114.916 35.1023 114.388 34.5567 113.857 33.861C113.698 33.6432 113.553 33.4849 113.422 33.3859C113.279 33.2776 113.106 33.2739 112.902 33.3747L112.594 33.1415L114.904 30.0843L115.213 30.3174C114.728 31.3219 114.564 32.2315 114.722 33.0461C114.88 33.8608 115.264 34.4989 115.875 34.9605C116.305 35.2855 116.749 35.4246 117.205 35.3779C117.672 35.3296 118.04 35.1278 118.309 34.7725C118.634 34.3424 118.754 33.8655 118.67 33.3418C118.592 32.8227 118.271 31.9974 117.707 30.8656C117.142 29.7338 116.856 28.8812 116.849 28.3078C116.837 27.7405 117.036 27.1858 117.445 26.6435C117.978 25.9392 118.663 25.5315 119.501 25.4205C120.345 25.3142 121.15 25.5508 121.917 26.1301C122.253 26.3845 122.608 26.7647 122.979 27.2707C123.226 27.6044 123.403 27.8113 123.509 27.8914C123.609 27.9668 123.703 28.0038 123.792 28.0026C123.881 28.0014 124.02 27.9542 124.207 27.8611L124.516 28.0943Z" fill="black"/>
<path d="M132.581 31.0758L130.051 33.5335L131.798 35.3323L131.21 35.9039L129.463 34.105L124.469 38.9551C123.971 39.4396 123.703 39.8362 123.665 40.1451C123.633 40.4595 123.725 40.7288 123.943 40.953C124.123 41.1379 124.353 41.2628 124.634 41.3277C124.92 41.3871 125.222 41.3555 125.539 41.2331L125.857 41.5609C125.117 41.8982 124.433 42.0236 123.805 41.9372C123.182 41.8452 122.685 41.6087 122.315 41.2277C122.064 40.9699 121.89 40.6497 121.79 40.267C121.696 39.8789 121.724 39.4981 121.873 39.1246C122.028 38.7456 122.382 38.2867 122.937 37.7478L128.115 32.718L126.931 31.4992L127.209 31.2297C127.631 31.4182 128.144 31.5306 128.745 31.567C129.358 31.6035 129.989 31.5519 130.637 31.4122C130.975 31.3342 131.539 31.1352 132.328 30.8152L132.581 31.0758Z" fill="black"/>
<path d="M136.565 40.5911L134.607 42.004C136.438 41.7905 137.63 42.067 138.183 42.8335C138.435 43.1819 138.535 43.5479 138.484 43.9314C138.44 44.3103 138.278 44.6004 138 44.8016C137.753 44.9799 137.484 45.0485 137.194 45.0072C136.904 44.966 136.677 44.8314 136.512 44.6033C136.352 44.3816 136.279 44.0537 136.294 43.6195C136.319 43.187 136.283 42.9043 136.187 42.7713C136.105 42.6573 135.952 42.5795 135.73 42.5379C135.264 42.4403 134.624 42.4544 133.809 42.5802L129.638 45.5912C129.156 45.9387 128.835 46.2618 128.675 46.5605C128.564 46.7663 128.526 47.0149 128.563 47.3063C128.6 47.5976 128.76 47.9397 129.044 48.3324L128.702 48.5793L125.485 44.123L125.827 43.876C126.147 44.3195 126.455 44.5986 126.749 44.7133C126.965 44.7985 127.207 44.7928 127.474 44.6961C127.605 44.65 127.923 44.4441 128.43 44.0783L131.803 41.6434C132.817 40.9118 133.402 40.4552 133.56 40.2737C133.729 40.0939 133.817 39.915 133.823 39.737C133.834 39.5653 133.78 39.3971 133.662 39.2324C133.52 39.036 133.312 38.8486 133.039 38.6701L133.312 38.3282L136.276 40.192L136.565 40.5911Z" fill="black"/>
<path d="M146.864 46.2966C147.016 46.5874 147.04 46.8875 146.938 47.1968C146.845 47.5095 146.654 47.7419 146.363 47.894C146.073 48.0461 145.769 48.0726 145.453 47.9735C145.14 47.8814 144.908 47.69 144.756 47.3992C144.603 47.1085 144.577 46.8049 144.676 46.4886C144.775 46.1723 144.97 45.9381 145.261 45.786C145.551 45.634 145.85 45.6058 146.155 45.7015C146.472 45.8006 146.708 45.999 146.864 46.2966ZM142.34 49.7602L134.698 53.7577C134.102 54.0691 133.726 54.3188 133.569 54.5069C133.422 54.6983 133.344 54.9024 133.334 55.1192C133.327 55.343 133.442 55.6799 133.677 56.1298L133.303 56.3254L130.886 51.7045L131.26 51.5089C131.503 51.9728 131.711 52.2607 131.884 52.3729C132.057 52.485 132.271 52.5318 132.526 52.5132C132.784 52.5015 133.208 52.3417 133.796 52.0339L137.462 50.1166C138.493 49.5771 139.145 49.1965 139.417 48.9749C139.613 48.8106 139.726 48.6548 139.754 48.5075C139.79 48.3566 139.761 48.1911 139.667 48.0111C139.565 47.8173 139.39 47.6091 139.141 47.3865L139.439 47.0456L142.101 49.3033L142.34 49.7602Z" fill="black"/>
<path d="M137.877 63.6067C136.727 62.8218 136.045 62.3161 135.832 62.0896C135.516 61.7486 135.284 61.3515 135.137 60.8982C134.908 60.1922 134.96 59.5305 135.294 58.913C135.63 58.303 136.191 57.8702 136.979 57.6145C137.477 57.4529 137.944 57.4245 138.381 57.5293C138.985 57.67 139.632 58.0432 140.321 58.649C141.013 59.2623 141.963 60.3421 143.171 61.8884L143.572 61.7582C144.59 61.4278 145.236 61.0376 145.509 60.5876C145.784 60.1451 145.822 59.6155 145.621 58.9987C145.469 58.5305 145.223 58.2 144.881 58.007C144.536 57.8067 144.201 57.7595 143.874 57.8656L143.235 58.0977C142.893 58.2087 142.6 58.2051 142.356 58.0871C142.115 57.9765 141.949 57.78 141.857 57.4976C141.768 57.2226 141.791 56.9646 141.926 56.7236C142.064 56.49 142.3 56.3189 142.634 56.2104C143.273 56.003 143.967 56.1394 144.714 56.6197C145.461 57.1 146.026 57.9309 146.41 59.1124C146.704 60.019 146.793 60.8115 146.676 61.49C146.588 62.0032 146.333 62.4434 145.91 62.8107C145.634 63.0481 145.002 63.3272 144.013 63.648L140.547 64.773C139.573 65.0889 138.981 65.3016 138.77 65.4111C138.567 65.5182 138.441 65.6247 138.393 65.7306C138.348 65.8439 138.343 65.9562 138.38 66.0677C138.418 66.1866 138.478 66.2822 138.559 66.3545C138.706 66.4792 139.075 66.6921 139.666 66.9933L139.041 67.1958C137.657 66.7253 136.841 66.1111 136.595 65.3531C136.477 64.989 136.509 64.6582 136.692 64.3607C136.875 64.0632 137.27 63.8119 137.877 63.6067ZM138.601 63.3716L142.491 62.1091C141.681 61.1317 141.13 60.5097 140.838 60.243C140.321 59.7621 139.843 59.4531 139.404 59.3162C138.965 59.1794 138.534 59.1796 138.111 59.3171C137.576 59.4907 137.182 59.7952 136.929 60.2305C136.683 60.6634 136.628 61.0879 136.763 61.504C136.946 62.0688 137.559 62.6913 138.601 63.3716Z" fill="black"/>
</svg>
