<svg width="161" height="162" viewBox="0 0 161 162" fill="none" xmlns="http://www.w3.org/2000/svg">
<path d="M8.32153 73.7146L12.0481 73.5388V73.9841C11.3918 74.0701 10.9231 74.1873 10.6418 74.3357C10.1887 74.5779 9.85669 74.9021 9.64575 75.3083C9.427 75.7068 9.31763 76.2341 9.31763 76.8904L9.31763 79.1287H21.4583C22.4348 79.1287 23.0442 79.0232 23.2864 78.8123C23.6145 78.5154 23.7786 78.0583 23.7786 77.4412V76.8904H24.2122L24.2122 83.6287L23.7786 83.6287V83.0662C23.7786 82.3943 23.5754 81.9177 23.1692 81.6365C22.9192 81.4646 22.3489 81.3787 21.4583 81.3787H9.31763V83.2888C9.31763 84.031 9.37231 84.5583 9.48169 84.8708C9.63013 85.2771 9.91528 85.6248 10.3372 85.9138C10.759 86.2029 11.3293 86.3748 12.0481 86.4294V86.8748L8.32153 86.6873L8.32153 73.7146Z" fill="#252525"/>
<path d="M8.39997 69.5991L16.1178 71.0418C15.3403 70.0143 14.8676 69.2265 14.6998 68.6785C14.5244 68.1291 14.4833 67.6048 14.5766 67.1057C14.6886 66.5067 14.9498 66.023 15.3605 65.6547C15.7711 65.2864 16.349 65.0646 17.0943 64.9893C17.613 64.9353 18.5252 65.0303 19.8307 65.2743L23.5629 65.972C24.231 66.0969 24.698 66.1285 24.9638 66.067C25.1625 66.0246 25.3328 65.9213 25.4748 65.7571C25.6168 65.5929 25.7337 65.2651 25.8255 64.7736L26.2402 64.8511L25.2712 70.0347L24.8566 69.9572L24.9018 69.7153C24.9936 69.2238 24.9846 68.8685 24.8746 68.6492C24.7569 68.4285 24.5593 68.2525 24.2818 68.1211C24.1632 68.0751 23.8045 67.9961 23.2055 67.8842L19.4732 67.1865C18.3213 66.9712 17.5534 66.8912 17.1695 66.9466C16.787 66.9943 16.4831 67.1322 16.2576 67.3603C16.0245 67.587 15.8735 67.8846 15.8046 68.2532C15.7343 68.6295 15.7609 69.0398 15.8845 69.4841C16.008 69.9285 16.3201 70.4915 16.8205 71.1732L22.3958 72.2154C23.1177 72.3503 23.5741 72.3959 23.7651 72.3521C23.9575 72.3007 24.1353 72.1789 24.2983 71.9869C24.4551 71.7857 24.5838 71.4163 24.6843 70.8788L25.099 70.9563L24.1214 76.186L23.7067 76.1085C23.7943 75.64 23.7902 75.2578 23.6945 74.9617C23.6465 74.7938 23.5235 74.6436 23.3257 74.5113C23.1279 74.3789 22.6988 74.251 22.0384 74.1276L12.4889 72.3425C11.2833 72.1171 10.5364 72.0093 10.2485 72.019C9.96199 72.0211 9.75733 72.0743 9.63453 72.1785C9.51316 72.275 9.43382 72.4231 9.39649 72.6228C9.36635 72.784 9.37898 73.0566 9.43438 73.4405L9.00106 73.5264L8.30091 70.129L8.39997 69.5991Z" fill="#252525"/>
<path d="M20.8954 60.459C22.3787 61.042 23.684 61.1329 24.8113 60.7318C25.9385 60.3307 26.6927 59.6384 27.0737 58.655C27.3277 57.9993 27.3693 57.3619 27.1986 56.7428C27.0235 56.1136 26.5623 55.4658 25.8151 54.7993L26.1649 54.5452C27.1036 55.0849 27.8421 55.882 28.3803 56.9367C28.9111 57.9886 28.9621 59.0682 28.5331 60.1755C28.0674 61.3775 27.2019 62.2277 25.9364 62.7261C24.6664 63.2143 23.241 63.1523 21.6602 62.5398C19.9482 61.8766 18.7844 60.9231 18.1687 59.6792C17.5486 58.4252 17.4954 57.1352 18.009 55.8094C18.4436 54.6875 19.1722 53.9099 20.1946 53.4765C21.2098 53.0404 22.3366 53.0622 23.5751 53.5419L20.8954 60.459ZM20.2616 60.2135L22.0565 55.5802C21.4013 55.3683 20.92 55.2698 20.6126 55.2848C20.1341 55.3089 19.7077 55.4579 19.3335 55.7318C18.9621 55.9985 18.7002 56.3285 18.5478 56.7219C18.3136 57.3265 18.3401 57.961 18.6273 58.6252C18.9101 59.2794 19.4549 59.8088 20.2616 60.2135Z" fill="#252525"/>
<path d="M30.7079 38.884C30.3398 37.1424 30.561 35.8271 31.3715 34.9379C32.1136 34.1239 33.1103 33.7322 34.3616 33.7628C35.607 33.7882 36.8331 34.3509 38.0397 35.4509C39.4485 36.7351 40.1567 38.237 40.1643 39.9565C40.1717 41.4327 39.7254 42.6645 38.8254 43.6517C38.4043 44.1136 37.8916 44.5079 37.2874 44.8344C36.6883 45.1552 35.9951 45.4112 35.2076 45.6025L26.989 38.1103C26.0883 37.2892 25.513 36.807 25.2631 36.6637C25.0184 36.5147 24.8164 36.4521 24.6571 36.4761C24.4979 36.5 24.3551 36.5813 24.2287 36.7198C24.0814 36.8815 23.9433 37.1257 23.8147 37.4524L23.401 37.2973L24.6022 34.0315L24.9574 33.6418L30.7079 38.884ZM31.2621 39.3893L36.0079 43.7156C36.565 43.6844 37.0607 43.5813 37.4951 43.4063C37.9289 43.2204 38.2958 42.9628 38.5958 42.6337C39.0748 42.1084 39.2308 41.3573 39.064 40.3807C38.9025 39.3982 38.2703 38.4044 37.1676 37.3991C36.1514 36.4728 35.1641 35.9903 34.2056 35.9517C33.2466 35.902 32.5039 36.1658 31.9776 36.7432C31.6986 37.0492 31.4976 37.4262 31.3746 37.8743C31.2795 38.2105 31.242 38.7155 31.2621 39.3893Z" fill="#252525"/>
<path d="M40.535 32.2929C41.4892 33.5695 42.5511 34.334 43.7207 34.5864C44.8903 34.8387 45.8959 34.6472 46.7376 34.0116C47.2987 33.5878 47.6696 33.0679 47.8504 32.4516C48.0327 31.8245 47.9817 31.0309 47.6972 30.0709L48.1284 30.039C48.6425 30.992 48.8507 32.0585 48.753 33.2385C48.6506 34.4123 48.1256 35.357 47.178 36.0726C46.1493 36.8495 44.9658 37.1166 43.6275 36.8742C42.2907 36.6208 41.1115 35.8176 40.0898 34.4647C38.9834 32.9996 38.4959 31.5762 38.6273 30.1945C38.7602 28.8019 39.394 27.6771 40.5287 26.8203C41.4888 26.0952 42.5176 25.8176 43.615 25.9874C44.7077 26.151 45.6543 26.7627 46.4547 27.8226L40.535 32.2929ZM40.1254 31.7505L44.0905 28.7562C43.6451 28.2311 43.2877 27.894 43.0184 27.7449C42.5989 27.5135 42.158 27.4157 41.6956 27.4516C41.2394 27.4828 40.843 27.6255 40.5064 27.8797C39.9889 28.2705 39.6775 28.8239 39.572 29.5398C39.4681 30.2449 39.6525 30.9818 40.1254 31.7505Z" fill="#252525"/>
<path d="M53.021 19.5256L54.6507 22.7985L54.3046 22.9709C53.5269 22.0752 52.836 21.5465 52.2318 21.3848C51.6346 21.2196 51.0144 21.2972 50.371 21.6175C49.8814 21.8613 49.5507 22.1874 49.3788 22.5959C49.207 23.0044 49.1994 23.366 49.3561 23.6807C49.5511 24.0724 49.8301 24.3523 50.1932 24.5207C50.5528 24.6994 51.1449 24.7843 51.9694 24.7751L53.8719 24.7573C55.6363 24.7428 56.8006 25.3019 57.3647 26.4349C57.8 27.3091 57.8195 28.1808 57.4233 29.0501C57.0306 29.909 56.4251 30.5421 55.6068 30.9495C55.0194 31.2421 54.2958 31.4715 53.436 31.6378C53.1704 31.6827 52.9642 31.7418 52.8173 31.8149C52.6565 31.895 52.5759 32.0486 52.5755 32.2757L52.2293 32.4481L50.5212 29.0178L50.8674 28.8454C51.5507 29.727 52.2923 30.2785 53.092 30.4999C53.8917 30.7214 54.6343 30.6614 55.3196 30.3202C55.8022 30.0799 56.1242 29.745 56.2856 29.3155C56.4505 28.8756 56.4338 28.4563 56.2353 28.0577C55.995 27.5751 55.6217 27.2548 55.1153 27.0968C54.616 26.9352 53.7339 26.8551 52.4691 26.8566C51.2043 26.858 50.3136 26.7342 49.7969 26.4853C49.2837 26.2434 48.8756 25.8182 48.5727 25.2098C48.1792 24.4195 48.1194 23.6246 48.3932 22.8249C48.674 22.0218 49.2445 21.4061 50.1047 20.9777C50.4824 20.7897 50.9805 20.642 51.5991 20.5347C52.008 20.462 52.2719 20.3961 52.3908 20.3369C52.5027 20.2812 52.5779 20.2132 52.6165 20.1329C52.655 20.0526 52.6745 19.9076 52.6748 19.698L53.021 19.5256Z" fill="#252525"/>
<path d="M61.8761 13.0558L62.8414 16.4485L65.2535 15.7622L65.4779 16.5512L63.0659 17.2375L64.9708 23.9327C65.1611 24.6015 65.3833 25.0256 65.6374 25.2051C65.8991 25.3825 66.1802 25.4284 66.4808 25.3429C66.7287 25.2723 66.9478 25.1287 67.138 24.9122C67.326 24.6881 67.4412 24.4076 67.4834 24.0707L67.923 23.9456C67.8695 24.7568 67.6558 25.4187 67.2818 25.9313C66.9056 26.4363 66.462 26.7615 65.9511 26.9069C65.6054 27.0052 65.2405 27.0075 64.8565 26.9137C64.4703 26.8124 64.148 26.6077 63.8897 26.2994C63.6293 25.9836 63.3933 25.4537 63.1816 24.7098L61.2061 17.7667L59.5717 18.2317L59.4659 17.8597C59.8322 17.5768 60.1738 17.1791 60.491 16.6664C60.8135 16.1442 61.0669 15.5644 61.2511 14.9272C61.3426 14.5925 61.4345 14.0018 61.5267 13.1552L61.8761 13.0558Z" fill="#252525"/>
<path d="M90.5121 14.8236L89.912 21.2998C89.7974 22.5367 89.7544 23.2977 89.7829 23.5828C89.8199 23.8608 89.8956 24.06 90.0099 24.1805C90.1321 24.3016 90.2787 24.3701 90.4499 24.386C90.691 24.4084 90.9694 24.3675 91.2851 24.2633L91.4106 24.6869L88.0912 25.7092L87.5661 25.6605L87.7758 23.3968C86.7656 24.3075 86.0075 24.8688 85.5014 25.0808C84.9953 25.2928 84.4739 25.374 83.9371 25.3242C83.3381 25.2687 82.8328 25.0493 82.4211 24.6659C82.0179 24.2755 81.7559 23.8001 81.6352 23.2397C81.5146 22.6793 81.5004 21.9012 81.5926 20.9055L82.0349 16.133C82.0817 15.6273 82.0597 15.2722 81.9688 15.0676C81.8779 14.8631 81.7283 14.7001 81.5198 14.5788C81.3199 14.4504 80.9395 14.3642 80.3787 14.3201L80.4187 13.8883L84.1643 14.2354L83.5015 21.3884C83.4093 22.3841 83.5198 23.0534 83.8333 23.3963C84.1545 23.7399 84.5602 23.9344 85.0503 23.9798C85.3848 24.0108 85.7718 23.9408 86.2113 23.7696C86.6587 23.5992 87.2014 23.2455 87.8396 22.7083L88.4008 16.6522C88.457 16.0455 88.3821 15.6266 88.176 15.3957C87.9783 15.1577 87.5302 14.9984 86.8315 14.918L86.8715 14.4863L90.5121 14.8236Z" fill="#252525"/>
<path d="M95.8993 18.0043C97.5239 16.8907 98.8847 16.49 99.9818 16.8022C100.545 16.9625 100.989 17.2432 101.314 17.6442C101.641 18.0377 101.832 18.5917 101.889 19.3064C101.926 19.8043 101.812 20.5191 101.547 21.4509L100.293 25.858C100.107 26.5117 100.033 26.97 100.072 27.2329C100.101 27.4443 100.191 27.6282 100.342 27.7847C100.499 27.9434 100.826 28.0933 101.322 28.2344L101.207 28.6402L96.1009 27.1874L96.2164 26.7816L96.4306 26.8425C96.9115 26.9794 97.2662 27.0031 97.4946 26.9138C97.7328 26.8191 97.93 26.6397 98.0864 26.3755C98.1485 26.2714 98.2641 25.9225 98.433 25.3288L99.6356 21.1021C99.9028 20.1628 99.9723 19.4475 99.8441 18.9561C99.7255 18.4594 99.3769 18.1287 98.7983 17.9641C97.9041 17.7097 96.8747 17.9447 95.7101 18.6693L94.1611 24.1134C93.9623 24.8122 93.8807 25.256 93.9163 25.4449C93.9595 25.6927 94.0563 25.8949 94.2067 26.0514C94.3668 26.2026 94.7286 26.3583 95.2921 26.5186L95.1767 26.9244L90.0708 25.4716L90.1862 25.0659L90.4116 25.13C90.9376 25.2797 91.3282 25.2487 91.5834 25.037C91.8482 24.8199 92.0875 24.3357 92.3013 23.5842L93.3917 19.752C93.7445 18.5121 93.9293 17.7484 93.9461 17.4608C93.9705 17.1753 93.9365 16.9666 93.844 16.8347C93.7591 16.7049 93.619 16.6123 93.4236 16.5567C93.2132 16.4968 92.9454 16.4816 92.6203 16.5109L92.5667 16.057L96.0368 15.6797L96.5214 15.8176L95.8993 18.0043Z" fill="#252525"/>
<path d="M113.085 16.0839C113.379 16.2302 113.575 16.4587 113.673 16.7695C113.782 17.0768 113.764 17.3773 113.617 17.671C113.471 17.9647 113.241 18.1642 112.926 18.2696C112.619 18.3784 112.319 18.3597 112.025 18.2134C111.731 18.0672 111.532 17.8369 111.426 17.5226C111.321 17.2083 111.342 16.9043 111.488 16.6106C111.634 16.3169 111.859 16.1191 112.163 16.0173C112.477 15.912 112.785 15.9342 113.085 16.0839ZM111.454 21.5423L107.609 29.263C107.31 29.8645 107.152 30.2875 107.135 30.5321C107.128 30.7732 107.184 30.9845 107.303 31.166C107.429 31.3509 107.72 31.5566 108.174 31.7829L107.986 32.1606L103.318 29.8361L103.506 29.4585C103.975 29.6918 104.312 29.803 104.518 29.7922C104.724 29.7814 104.925 29.6937 105.121 29.5292C105.323 29.3681 105.572 28.9904 105.868 28.3959L107.712 24.6929C108.231 23.6509 108.535 22.9603 108.626 22.6213C108.688 22.3731 108.688 22.181 108.625 22.0448C108.565 21.9017 108.444 21.7848 108.263 21.6943C108.067 21.5968 107.803 21.5308 107.471 21.4964L107.512 21.0456L110.992 21.3124L111.454 21.5423Z" fill="#252525"/>
<path d="M115.8 24.1381L119.83 27.1819L119.569 27.5279L119.307 27.3302C119.064 27.1466 118.832 27.0645 118.612 27.0841C118.398 27.1084 118.215 27.2203 118.065 27.4198C117.9 27.638 117.77 27.9462 117.675 28.3443L116.093 34.5806L121.802 31.1822C122.209 30.9413 122.481 30.7305 122.618 30.5497C122.683 30.4624 122.713 30.3719 122.705 30.2781C122.707 30.1328 122.667 30.0045 122.585 29.8933C122.507 29.7759 122.306 29.5948 121.982 29.3499L122.243 29.0039L125.039 31.1155L124.778 31.4615C124.435 31.2416 124.161 31.1376 123.956 31.1494C123.597 31.1717 123.165 31.3351 122.661 31.6397L114.071 36.695L113.687 36.4054L116.088 26.8672C116.205 26.427 116.256 26.0881 116.239 25.8505C116.228 25.6067 116.163 25.362 116.045 25.1163C115.981 24.9801 115.812 24.7694 115.538 24.4841L115.8 24.1381Z" fill="#252525"/>
<path d="M124.94 36.8977C123.757 37.9657 123.094 39.0936 122.951 40.2814C122.807 41.4693 123.091 42.453 123.801 43.2324C124.275 43.752 124.827 44.0734 125.457 44.1966C126.099 44.3202 126.884 44.1962 127.814 43.8244L127.885 44.2508C126.984 44.8506 125.941 45.1563 124.757 45.1679C123.579 45.1743 122.59 44.7387 121.79 43.8611C120.921 42.9085 120.546 41.7547 120.664 40.3997C120.793 39.0452 121.484 37.7969 122.737 36.6548C124.094 35.418 125.466 34.8012 126.854 34.8045C128.253 34.8084 129.431 35.3357 130.389 36.3865C131.2 37.2756 131.571 38.2744 131.503 39.3828C131.441 40.486 130.919 41.4849 129.938 42.3797L124.94 36.8977ZM125.443 36.4398L128.79 40.1118C129.272 39.6197 129.575 39.2328 129.698 38.9509C129.89 38.5119 129.947 38.0638 129.868 37.6067C129.795 37.1553 129.616 36.7738 129.332 36.462C128.895 35.9828 128.316 35.7238 127.593 35.6848C126.881 35.6464 126.165 35.8981 125.443 36.4398Z" fill="#252525"/>
<path d="M137.164 45.5019L135.112 46.7727C136.953 46.6893 138.122 47.0495 138.62 47.8532C138.846 48.2186 138.92 48.5907 138.843 48.9697C138.771 49.3445 138.59 49.6224 138.298 49.8034C138.038 49.9638 137.766 50.0131 137.48 49.9515C137.193 49.8898 136.976 49.7394 136.828 49.5003C136.684 49.2678 136.635 48.9356 136.679 48.5035C136.735 48.0739 136.72 47.7894 136.633 47.6499C136.559 47.5303 136.413 47.4419 136.193 47.3847C135.736 47.2544 135.096 47.2231 134.275 47.2909L129.901 49.9992C129.396 50.3117 129.053 50.6113 128.872 50.8979C128.746 51.0953 128.691 51.3406 128.708 51.6338C128.724 51.9271 128.859 52.2796 129.114 52.6914L128.756 52.9135L125.862 48.2406L126.221 48.0185C126.509 48.4835 126.796 48.7837 127.082 48.919C127.291 49.0193 127.532 49.0306 127.806 48.9531C127.939 48.9164 128.272 48.7336 128.803 48.4045L132.34 46.2145C133.403 45.5565 134.02 45.1425 134.19 44.9726C134.371 44.8053 134.471 44.633 134.49 44.4559C134.513 44.2854 134.471 44.1138 134.365 43.9411C134.237 43.7352 134.043 43.5335 133.783 43.3362L134.08 43.0145L136.905 45.0834L137.164 45.5019Z" fill="#252525"/>
<path d="M143.823 59.476L140.414 60.7968L140.274 60.4362C141.238 59.7445 141.828 59.1054 142.045 58.5187C142.264 57.9393 142.244 57.3145 141.985 56.6443C141.787 56.1343 141.493 55.7749 141.102 55.5661C140.711 55.3573 140.352 55.3164 140.024 55.4434C139.616 55.6014 139.311 55.8534 139.11 56.1994C138.899 56.541 138.76 57.1227 138.693 57.9446L138.535 59.8406C138.387 61.5988 137.723 62.7065 136.543 63.1637C135.632 63.5165 134.762 63.4555 133.933 62.9807C133.114 62.5104 132.54 61.8491 132.209 60.9968C131.972 60.3848 131.811 59.6432 131.724 58.7717C131.704 58.5031 131.664 58.2923 131.605 58.1393C131.54 57.9718 131.395 57.8773 131.169 57.856L131.029 57.4954L134.602 56.1111L134.742 56.4717C133.801 57.0708 133.183 57.7583 132.889 58.5342C132.595 59.31 132.586 60.0549 132.863 60.7689C133.057 61.2715 133.361 61.623 133.774 61.8234C134.197 62.0282 134.616 62.0502 135.031 61.8893C135.534 61.6946 135.887 61.3524 136.091 60.8628C136.298 60.3805 136.459 59.5096 136.574 58.2501C136.69 56.9906 136.895 56.1151 137.191 55.6236C137.479 55.1349 137.94 54.7678 138.574 54.5222C139.397 54.2033 140.194 54.2171 140.965 54.5635C141.739 54.9173 142.299 55.5422 142.646 56.4382C142.799 56.8316 142.9 57.3412 142.95 57.9671C142.984 58.3809 143.025 58.6498 143.073 58.7736C143.119 58.8902 143.179 58.9714 143.256 59.0172C143.332 59.063 143.475 59.0957 143.683 59.1154L143.823 59.476Z" fill="#252525"/>
<path d="M151.738 68.0689C151.799 68.3914 151.734 68.6855 151.546 68.9513C151.366 69.2233 151.115 69.3895 150.792 69.4498C150.47 69.5101 150.172 69.4466 149.898 69.2592C149.626 69.0796 149.46 68.8285 149.4 68.506C149.34 68.1834 149.403 67.8854 149.59 67.612C149.778 67.3385 150.033 67.1717 150.355 67.1114C150.678 67.0511 150.971 67.1115 151.235 67.2925C151.509 67.4799 151.677 67.7386 151.738 68.0689ZM146.399 70.0564L137.921 71.6412C137.261 71.7647 136.828 71.8933 136.622 72.0271C136.426 72.1671 136.291 72.3393 136.218 72.5437C136.146 72.7558 136.157 73.1114 136.251 73.6106L135.836 73.6881L134.878 68.5621L135.292 68.4846C135.389 68.9991 135.503 69.3353 135.636 69.4933C135.769 69.6513 135.96 69.7586 136.209 69.8154C136.459 69.8798 136.911 69.8511 137.564 69.729L141.63 68.9689C142.774 68.755 143.509 68.5819 143.834 68.4497C144.069 68.35 144.223 68.2339 144.293 68.1015C144.372 67.9676 144.392 67.8009 144.355 67.6012C144.315 67.3862 144.208 67.1358 144.036 66.8502L144.42 66.6114L146.305 69.5495L146.399 70.0564Z" fill="#252525"/>
<path d="M150.474 81.7927H146.947V84.3005H146.126V81.7927H139.165C138.47 81.7927 138.001 81.8904 137.759 82.0857C137.517 82.2888 137.396 82.5466 137.396 82.8591C137.396 83.1169 137.474 83.3669 137.63 83.6091C137.794 83.8513 138.032 84.0388 138.345 84.1716V84.6287C137.579 84.3552 137.001 83.9685 136.611 83.4685C136.228 82.9685 136.036 82.4529 136.036 81.9216C136.036 81.5623 136.134 81.2107 136.329 80.8669C136.532 80.5232 136.818 80.2693 137.185 80.1052C137.56 79.9412 138.134 79.8591 138.907 79.8591H146.126V78.1599H146.513C146.685 78.5896 146.974 79.0271 147.38 79.4724C147.794 79.9255 148.282 80.3279 148.845 80.6794C149.142 80.8591 149.685 81.1091 150.474 81.4294V81.7927Z" fill="#252525"/>
<path d="M151.539 94.7728C151.479 95.0953 151.313 95.3464 151.041 95.5261C150.775 95.7148 150.481 95.7791 150.158 95.7188C149.836 95.6585 149.581 95.4916 149.394 95.2181C149.205 94.9524 149.141 94.6582 149.201 94.3357C149.261 94.0131 149.428 93.7582 149.702 93.5709C149.975 93.3836 150.273 93.3201 150.596 93.3804C150.918 93.4407 151.17 93.603 151.351 93.8673C151.538 94.1408 151.601 94.4426 151.539 94.7728ZM145.843 94.6975L137.365 93.1126C136.704 92.9892 136.254 92.9527 136.014 93.0032C135.781 93.0629 135.593 93.1748 135.451 93.339C135.307 93.5109 135.189 93.8464 135.096 94.3456L134.681 94.2681L135.639 89.142L136.054 89.2195C135.958 89.7341 135.943 90.089 136.01 90.2842C136.077 90.4795 136.216 90.6486 136.428 90.7915C136.638 90.9421 137.07 91.0784 137.722 91.2004L141.789 91.9606C142.933 92.1744 143.68 92.2784 144.031 92.2725C144.287 92.2647 144.472 92.2118 144.585 92.1138C144.707 92.0173 144.786 91.8692 144.823 91.6695C144.864 91.4545 144.855 91.1826 144.797 90.8539L145.242 90.7701L145.938 94.1906L145.843 94.6975Z" fill="#252525"/>
<path d="M139.529 101.319C138.045 100.736 136.74 100.645 135.613 101.046C134.486 101.448 133.731 102.14 133.35 103.123C133.096 103.779 133.055 104.416 133.225 105.035C133.401 105.665 133.862 106.313 134.609 106.979L134.259 107.233C133.32 106.693 132.582 105.896 132.044 104.842C131.513 103.79 131.462 102.71 131.891 101.603C132.357 100.401 133.222 99.5506 134.488 99.0523C135.758 98.564 137.183 98.6261 138.764 99.2385C140.476 99.9017 141.64 100.855 142.255 102.099C142.875 103.353 142.929 104.643 142.415 105.969C141.98 107.091 141.252 107.868 140.229 108.302C139.214 108.738 138.087 108.716 136.849 108.236L139.529 101.319ZM140.162 101.565L138.368 106.198C139.023 106.41 139.504 106.509 139.811 106.494C140.29 106.469 140.716 106.32 141.091 106.047C141.462 105.78 141.724 105.45 141.876 105.056C142.111 104.452 142.084 103.817 141.797 103.153C141.514 102.499 140.969 101.97 140.162 101.565Z" fill="#252525"/>
<path d="M135.634 118.747L132.526 116.823L132.729 116.494C133.862 116.846 134.728 116.932 135.327 116.751C135.921 116.577 136.408 116.185 136.786 115.574C137.074 115.109 137.184 114.657 137.115 114.22C137.046 113.782 136.862 113.47 136.563 113.285C136.191 113.055 135.806 112.964 135.409 113.012C135.009 113.049 134.461 113.289 133.765 113.731L132.157 114.747C130.664 115.688 129.38 115.826 128.304 115.16C127.474 114.646 126.998 113.915 126.877 112.967C126.759 112.03 126.941 111.173 127.422 110.396C127.767 109.838 128.262 109.262 128.905 108.668C129.107 108.49 129.252 108.331 129.338 108.192C129.433 108.039 129.42 107.866 129.301 107.672L129.505 107.344L132.763 109.361L132.559 109.69C131.514 109.3 130.593 109.221 129.797 109.454C129 109.687 128.4 110.129 127.997 110.78C127.714 111.238 127.616 111.692 127.705 112.142C127.796 112.603 128.031 112.951 128.41 113.185C128.868 113.469 129.354 113.545 129.868 113.413C130.378 113.287 131.17 112.891 132.244 112.224C133.319 111.557 134.141 111.193 134.712 111.133C135.275 111.068 135.846 111.215 136.424 111.573C137.175 112.038 137.644 112.682 137.832 113.506C138.016 114.337 137.855 115.161 137.349 115.978C137.127 116.336 136.782 116.724 136.312 117.141C136.003 117.418 135.813 117.613 135.743 117.726C135.677 117.832 135.649 117.93 135.659 118.018C135.668 118.107 135.728 118.24 135.838 118.419L135.634 118.747Z" fill="#252525"/>
<path d="M123.571 139.202C123.309 139.4 123.017 139.473 122.695 139.423C122.371 139.383 122.111 139.232 121.913 138.971C121.715 138.709 121.639 138.414 121.685 138.085C121.724 137.762 121.875 137.501 122.137 137.303C122.399 137.106 122.694 137.03 123.022 137.076C123.35 137.121 123.613 137.275 123.811 137.537C124.009 137.799 124.086 138.088 124.041 138.406C123.996 138.734 123.839 138.999 123.571 139.202ZM119.412 135.309L114.214 128.426C113.809 127.889 113.501 127.559 113.29 127.435C113.077 127.322 112.862 127.278 112.647 127.303C112.425 127.334 112.112 127.502 111.706 127.808L111.452 127.471L115.614 124.329L115.868 124.665C115.45 124.981 115.2 125.233 115.118 125.423C115.036 125.612 115.025 125.831 115.085 126.079C115.139 126.332 115.366 126.723 115.766 127.253L118.259 130.554C118.961 131.483 119.443 132.064 119.706 132.296C119.901 132.462 120.073 132.548 120.223 132.552C120.378 132.562 120.536 132.506 120.698 132.384C120.873 132.252 121.049 132.045 121.228 131.763L121.613 132.001L119.823 134.998L119.412 135.309Z" fill="#252525"/>
<path d="M110.984 137.93C110.534 139.847 109.798 141.06 108.777 141.569C108.253 141.83 107.735 141.921 107.225 141.844C106.719 141.773 106.204 141.493 105.681 141.003C105.318 140.66 104.921 140.055 104.489 139.187L102.447 135.086C102.144 134.477 101.889 134.089 101.683 133.921C101.519 133.785 101.329 133.709 101.112 133.695C100.889 133.684 100.546 133.793 100.085 134.023L99.8967 133.646L104.649 131.279L104.837 131.657L104.637 131.756C104.19 131.979 103.912 132.201 103.803 132.42C103.691 132.651 103.666 132.916 103.728 133.217C103.753 133.336 103.902 133.671 104.177 134.224L106.136 138.158C106.572 139.032 107.002 139.607 107.428 139.884C107.85 140.171 108.331 140.181 108.869 139.913C109.701 139.498 110.304 138.631 110.676 137.311L108.153 132.244C107.829 131.594 107.591 131.211 107.437 131.095C107.238 130.941 107.03 130.857 106.814 130.843C106.594 130.839 106.221 130.967 105.697 131.229L105.509 130.851L110.261 128.485L110.449 128.862L110.239 128.967C109.75 129.211 109.482 129.497 109.436 129.825C109.386 130.164 109.536 130.683 109.884 131.382L111.66 134.949C112.235 136.103 112.613 136.792 112.794 137.016C112.968 137.243 113.134 137.374 113.291 137.41C113.441 137.448 113.607 137.422 113.789 137.332C113.985 137.234 114.193 137.065 114.414 136.824L114.759 137.124L112.449 139.74L111.998 139.965L110.984 137.93Z" fill="#252525"/>
<path d="M83.5714 142.161L89.6975 141.593L90.5396 138.997C90.7471 138.358 90.8369 137.886 90.8087 137.583C90.7864 137.342 90.6538 137.138 90.4109 136.973C90.1609 136.815 89.6522 136.745 88.8848 136.761L88.8448 136.329L93.8274 135.867L93.8674 136.299C93.217 136.477 92.8032 136.668 92.626 136.873C92.2639 137.283 91.8946 138.083 91.5183 139.271L87.159 152.809L86.7506 152.847L80.0233 140.195C79.4818 139.178 79.0174 138.527 78.63 138.241C78.2355 137.963 77.7137 137.835 77.0644 137.856L77.0244 137.424L83.2672 136.846L83.3072 137.278C82.6799 137.367 82.2657 137.512 82.0645 137.711C81.8555 137.91 81.7628 138.139 81.7866 138.395C81.8183 138.738 82.024 139.264 82.4037 139.974L83.5714 142.161ZM83.9781 142.994L87.2545 149.14L89.4157 142.49L83.9781 142.994Z" fill="#252525"/>
<path d="M69.9122 146.955L70.5123 140.479C70.6269 139.242 70.6699 138.481 70.6414 138.196C70.6044 137.918 70.5287 137.719 70.4144 137.598C70.2922 137.477 70.1456 137.409 69.9744 137.393C69.7333 137.37 69.4549 137.411 69.1392 137.515L69.0137 137.092L72.3331 136.07L72.8582 136.118L72.6485 138.382C73.6587 137.471 74.4168 136.91 74.9229 136.698C75.429 136.486 75.9505 136.405 76.4872 136.455C77.0862 136.51 77.5916 136.73 78.0033 137.113C78.4065 137.503 78.6684 137.979 78.7891 138.539C78.9098 139.1 78.924 139.878 78.8317 140.873L78.3895 145.646C78.3426 146.151 78.3646 146.507 78.4555 146.711C78.5464 146.916 78.6961 147.079 78.9045 147.2C79.1045 147.328 79.4848 147.415 80.0457 147.459L80.0056 147.89L76.26 147.543L76.9228 140.39C77.0151 139.395 76.9045 138.725 76.591 138.383C76.2698 138.039 75.8641 137.844 75.374 137.799C75.0395 137.768 74.6525 137.838 74.213 138.009C73.7657 138.18 73.2229 138.533 72.5847 139.07L72.0235 145.127C71.9673 145.733 72.0422 146.152 72.2484 146.383C72.446 146.621 72.8941 146.78 73.5928 146.861L73.5528 147.293L69.9122 146.955Z" fill="#252525"/>
<path d="M58.9662 144.556L59.9668 141.04L60.3387 141.145C60.31 142.331 60.4644 143.187 60.8019 143.714C61.1319 144.238 61.6426 144.599 62.3339 144.796C62.8599 144.945 63.324 144.927 63.7262 144.741C64.1285 144.555 64.3777 144.293 64.4739 143.955C64.5936 143.534 64.576 143.139 64.4211 142.77C64.2758 142.396 63.8954 141.934 63.2799 141.385L61.862 140.117C60.5482 138.939 60.0645 137.741 60.4109 136.524C60.6781 135.585 61.251 134.927 62.1295 134.552C62.9983 134.182 63.8723 134.122 64.7515 134.372C65.3827 134.551 66.072 134.869 66.8194 135.326C67.046 135.471 67.2382 135.567 67.396 135.611C67.5688 135.661 67.7318 135.601 67.8851 135.434L68.2571 135.54L67.2084 139.225L66.8364 139.12C66.9254 138.008 66.7489 137.101 66.3071 136.398C65.8652 135.696 65.2761 135.24 64.5397 135.03C64.0212 134.883 63.5577 134.913 63.149 135.122C62.7308 135.336 62.4607 135.657 62.3388 136.085C62.1913 136.604 62.2514 137.092 62.5191 137.55C62.7793 138.006 63.3772 138.659 64.3129 139.51C65.2485 140.361 65.8234 141.053 66.0375 141.585C66.2538 142.109 66.2689 142.699 66.0829 143.352C65.8413 144.201 65.35 144.829 64.6089 145.236C63.8603 145.64 63.0239 145.711 62.0996 145.448C61.6939 145.332 61.2263 145.106 60.6968 144.768C60.3457 144.547 60.1062 144.418 59.9785 144.381C59.8583 144.347 59.7568 144.347 59.6742 144.38C59.5917 144.413 59.4796 144.507 59.3381 144.662L58.9662 144.556Z" fill="#252525"/>
<path d="M48.0636 143.372L49.6359 140.214L47.391 139.096L47.7566 138.362L50.0015 139.48L53.1043 133.249C53.4142 132.626 53.5357 132.163 53.4689 131.859C53.395 131.552 53.2182 131.328 52.9384 131.189C52.7077 131.074 52.449 131.033 52.1626 131.065C51.8727 131.104 51.5986 131.233 51.3404 131.454L50.9313 131.25C51.5174 130.687 52.1212 130.341 52.7429 130.215C53.3611 130.095 53.908 130.153 54.3836 130.39C54.7053 130.55 54.9765 130.794 55.1971 131.123C55.4143 131.458 55.5145 131.826 55.4977 132.228C55.4774 132.637 55.2948 133.187 54.9501 133.88L51.7324 140.342L53.2535 141.099L53.0811 141.445C52.6199 141.407 52.0994 141.471 51.5197 141.636C50.9295 141.805 50.3517 142.063 49.7863 142.41C49.4931 142.595 49.0273 142.97 48.3888 143.533L48.0636 143.372Z" fill="#252525"/>
<path d="M39.8891 134.46L41.3439 132.534C39.6571 133.277 38.4364 133.363 37.6821 132.794C37.3392 132.535 37.1355 132.215 37.0712 131.833C37.0021 131.458 37.0711 131.133 37.2783 130.859C37.4619 130.616 37.6983 130.471 37.9875 130.425C38.2768 130.379 38.5336 130.441 38.758 130.611C38.9762 130.775 39.1425 131.067 39.2567 131.486C39.36 131.907 39.4771 132.167 39.608 132.266C39.7203 132.35 39.8889 132.38 40.114 132.354C40.5876 132.31 41.1953 132.108 41.9371 131.748L45.0374 127.643C45.3952 127.169 45.6067 126.766 45.6718 126.433C45.7179 126.204 45.6804 125.955 45.5595 125.688C45.4385 125.42 45.1847 125.14 44.7982 124.848L45.0524 124.512L49.4384 127.824L49.1841 128.161C48.7477 127.831 48.3717 127.655 48.0562 127.632C47.825 127.614 47.5958 127.69 47.3687 127.862C47.2575 127.944 47.0136 128.235 46.6369 128.733L44.1299 132.053C43.3766 133.051 42.9511 133.66 42.8535 133.88C42.745 134.101 42.7139 134.298 42.7602 134.47C42.8002 134.637 42.9013 134.782 43.0634 134.904C43.2567 135.05 43.5102 135.168 43.824 135.258L43.6633 135.666L40.2819 134.757L39.8891 134.46Z" fill="#252525"/>
<path d="M26.1485 129.443C25.9274 129.201 25.8272 128.917 25.8478 128.591C25.8573 128.265 25.9833 127.992 26.2258 127.771C26.4683 127.55 26.7551 127.447 27.0862 127.462C27.412 127.472 27.6855 127.598 27.9065 127.84C28.1276 128.083 28.2305 128.37 28.2151 128.701C28.1998 129.032 28.0709 129.308 27.8285 129.529C27.586 129.75 27.3047 129.853 26.9846 129.838C26.6535 129.823 26.3748 129.691 26.1485 129.443ZM29.6415 124.943L36.0154 119.132C36.512 118.679 36.8124 118.342 36.9166 118.12C37.0099 117.898 37.0337 117.68 36.9882 117.468C36.9375 117.25 36.7411 116.953 36.3989 116.578L36.7107 116.294L40.2239 120.148L39.9122 120.432C39.5595 120.045 39.2852 119.82 39.089 119.755C38.8929 119.691 38.6741 119.7 38.4324 119.783C38.1855 119.86 37.8167 120.122 37.326 120.57L34.2689 123.356C33.4087 124.141 32.8752 124.675 32.6685 124.958C32.5206 125.167 32.4515 125.346 32.4612 125.496C32.4651 125.651 32.5354 125.804 32.6723 125.954C32.8196 126.115 33.0419 126.272 33.339 126.424L33.1378 126.83L29.9889 125.324L29.6415 124.943Z" fill="#252525"/>
<path d="M30.2846 109.568C31.5885 110.056 32.371 110.385 32.632 110.554C33.0201 110.81 33.3396 111.141 33.5905 111.546C33.9812 112.177 34.0882 112.832 33.9114 113.511C33.7305 114.184 33.2881 114.738 32.584 115.174C32.1389 115.45 31.692 115.588 31.2431 115.591C30.6228 115.598 29.9057 115.39 29.0918 114.966C28.2738 114.535 27.0938 113.712 25.552 112.499L25.1933 112.721C24.2833 113.284 23.7494 113.817 23.5916 114.319C23.4297 114.814 23.5194 115.338 23.8608 115.889C24.1199 116.307 24.4384 116.57 24.8164 116.675C25.1986 116.788 25.5357 116.754 25.828 116.573L26.3936 116.195C26.6991 116.006 26.9843 115.94 27.249 115.996C27.5097 116.046 27.7181 116.197 27.8744 116.45C28.0266 116.696 28.0657 116.952 27.9917 117.218C27.9136 117.478 27.7251 117.7 27.4262 117.885C26.8549 118.239 26.1492 118.271 25.3091 117.983C24.4689 117.695 23.7218 117.022 23.0679 115.966C22.5662 115.156 22.291 114.407 22.2426 113.721C22.2059 113.201 22.3491 112.713 22.6723 112.255C22.8839 111.959 23.4314 111.537 24.3149 110.99L27.4135 109.072C28.2837 108.533 28.8081 108.185 28.9868 108.029C29.1588 107.876 29.2555 107.743 29.2767 107.629C29.2937 107.508 29.2714 107.398 29.2097 107.298C29.1439 107.192 29.0631 107.113 28.9672 107.062C28.7945 106.976 28.3855 106.857 27.7402 106.705L28.2982 106.36C29.7551 106.487 30.6934 106.889 31.1129 107.567C31.3144 107.892 31.3619 108.221 31.2553 108.554C31.1487 108.886 30.8252 109.224 30.2846 109.568ZM29.637 109.969L26.1597 112.122C27.1793 112.878 27.8626 113.351 28.2096 113.541C28.8268 113.885 29.3647 114.071 29.8234 114.099C30.282 114.127 30.7007 114.024 31.0793 113.79C31.5575 113.494 31.8676 113.104 32.0096 112.621C32.145 112.142 32.0975 111.717 31.8672 111.345C31.5546 110.84 30.8112 110.382 29.637 109.969Z" fill="#252525"/>
</svg>
